<?xml version="1.0" encoding="UTF-8"?><svg xmlns="http://www.w3.org/2000/svg" viewBox="0 0 1296 1728"><g id="a"><rect width="1296" height="1728" style="fill:#dcbe87;"/></g><g id="b"><path d="M829.2,808.78h-168.42c-1.21-1.04-2.48-2.01-3.61-3.13-5.31-5.27-12.93-5.27-18.23,0-1.13,1.12-2.4,2.09-3.61,3.13h-168.42c-7.78-2.73-10.92-8.24-10.56-16.42.36-8.09.05-16.22.09-24.33.02-4.37,1.8-6.48,5.41-6.57,3.79-.1,5.77,2.08,5.79,6.56.04,8.36.16,16.72-.06,25.08-.09,3.48,1.07,4.48,4.5,4.48,52.02-.09,104.03-.05,156.05-.14,1.67,0,3.62-.75,4.96-1.77,8.74-6.72,20.9-6.81,29.59-.3,1.62,1.21,3.96,2.06,5.96,2.06,51.52.11,103.04.09,154.55.09q5.25,0,5.25-5.47c0-75.86,0-151.72,0-227.57,0-1,.28-2.13-.09-2.96-.43-.95-1.4-2.26-2.22-2.32-3.55-.25-7.13-.11-10.96-.11,0,2.18,0,3.79,0,5.4,0,70.62,0,141.23,0,211.85,0,7.91-1.25,9.17-9.02,9.17-105.41,0-210.81,0-316.22,0-7.78,0-9.02-1.26-9.02-9.17,0-70.74,0-141.48,0-212.23v-4.58c-.91-.25-1.26-.42-1.61-.43-2.12-.04-4.24-.06-6.36-.05q-5.29,0-5.3,5.43c0,55.52,0,111.04,0,166.56,0,4.61-1.81,6.87-5.44,6.97-3.7.1-5.77-2.2-5.77-6.63-.01-56.64-.02-113.29,0-169.93,0-7.99,5.31-13.34,13.31-13.62,2.87-.1,5.74.09,8.6-.1.89-.06,2.36-.78,2.48-1.41.75-3.76,3.46-5.31,6.65-6.37,8.98-2.97,17.9-6.12,26.99-8.71,3.17-.91,3.96-2.19,3.95-5.3-.12-23.7-.08-47.41-.06-71.12,0-6.36,2.6-8.59,8.63-6.97,8.29,2.22,16.47,4.83,24.7,7.28,1.24.37,2.46.78,4.1,1.31,0-8.6-.08-16.58.03-24.56.07-4.88,2.95-7.19,7.55-6.17,18.58,4.11,35.36,11.89,49.61,24.72,19.66,17.69,30.61,40.25,36.5,65.57,1.63,7,2.63,14.15,3.96,21.44.71-.47,1.35-.83,1.91-1.27,38.06-29.46,81.52-43.09,129.28-44.03,6.49-.13,8.09,1.53,8.1,8.16.01,9.98.12,19.96-.07,29.94-.06,2.97.72,4.42,3.69,5.3,4.76,1.42,9.46,3.16,13.97,5.24,1.84.85,3.83,2.71,4.44,4.55.76,2.28,1.87,2.56,3.75,2.48,1.49-.06,3,.09,4.49-.03,8.05-.67,13.77,2.42,16.67,10.17v241.08c-2.2,4.64-5.45,8.14-10.48,9.73ZM781.51,503.53c-1.68,0-2.79-.05-3.89,0-14.85.76-29.52,2.74-43.92,6.55-28.61,7.57-54.53,20.36-77.1,39.67-1.89,1.62-2.99,3.27-2.98,5.99.08,68.25.06,136.49.08,204.74,0,1.12.18,2.25.32,3.88,37.79-29.34,80.29-43.24,127.49-44.98v-4.96c0-38.68,0-77.35,0-116.03,0-5.81,1.71-8.46,5.49-8.59,3.96-.13,5.74,2.52,5.74,8.61,0,41.17,0,82.35,0,123.52,0,7.36-1.31,8.72-8.73,8.78-24.29.2-47.82,4.58-70.58,13.03-2.41.89-4.76,1.94-7.14,2.92,16.35-2.32,32.6-3.01,48.96-1.72,16.44,1.29,32.44,4.77,48.7,9.59v-4.96c0-65,0-130.01,0-195.01,0-1,.15-2.04-.08-2.98-.18-.72-.71-1.65-1.33-1.9-3.06-1.25-6.19-2.32-9.87-3.65,0,5.55.11,10.4-.04,15.24-.1,3.03-1.92,4.84-4.96,5.09-3.21.26-5.24-1.36-5.92-4.48-.26-1.2-.23-2.48-.23-3.72-.01-13.35,0-26.7,0-40.05v-14.59ZM642.24,718.96c.08-1.55.2-2.73.2-3.92,0-54.27,0-108.53,0-162.8,0-13.93-1.86-27.61-5.74-40.97-7.26-25.03-19.84-46.47-42.26-61.01-8.36-5.43-17.37-9.43-27.29-11.91-.07,1.24-.15,2.1-.15,2.96,0,69.74,0,139.47-.07,209.21,0,2.66.92,3.55,3.38,4.24,26.7,7.5,47.65,22.82,62.26,46.49,3.44,5.57,6.29,11.5,9.65,17.71ZM492.15,754.55c47.15-14.23,93.34-14.89,139.45,6.2-1.17-1.85-1.64-2.71-2.21-3.5-26.08-36.12-60.08-60.66-103.79-71.03-6.69-1.58-7.26-2.3-7.26-9.08,0-43.42,0-86.83,0-130.25,0-1.54,0-3.08,0-5.48-8.05,2.61-15.2,5.05-22.44,7.22-3.03.91-3.83,2.53-3.83,5.61.09,65.25.07,130.5.07,195.75,0,1.35,0,2.69,0,4.55ZM639.33,751.49c.29-.12.58-.23.87-.35-2.36-7.83-4.3-15.82-7.16-23.46-12.31-33.02-35-54.78-69.69-63.18-7.13-1.73-7.58-2.24-7.58-9.57,0-60.37,0-120.75,0-181.12,0-1.12.14-2.27-.06-3.36-.14-.74-.61-1.81-1.19-2.03-8.09-3.01-16.22-5.9-24.72-8.96-.12,1.71-.21,2.44-.21,3.18,0,69.98,0,139.96-.05,209.94,0,2.24.61,3.21,2.92,3.81,40.15,10.39,72.65,32.51,98.67,64.54,2.81,3.46,5.47,7.04,8.2,10.56ZM631.28,774.09c.06-.18.13-.36.19-.55-2.39-1.21-4.73-2.53-7.17-3.63-42.73-19.24-86.14-17.88-129.9-4.08-.94.3-1.94,1.7-2.15,2.74-.35,1.75-.1,3.62-.1,5.51h139.12ZM663.81,774.05h140.14c0-1.83-.12-3.44.03-5.03.19-1.99-.69-2.82-2.52-3.4-35.49-11.18-71.29-13.98-107.54-3.93-10.19,2.83-19.97,6.71-30.12,12.36Z" style="fill:#4e1d04;"/><path d="M207.5,1074.04c-4,3.07-9.07,5.2-15.2,6.4-6.13,1.2-12.67,1.8-19.6,1.8-8.4,0-16.27-1.43-23.6-4.3-7.33-2.87-13.73-7.23-19.2-13.1-5.47-5.87-9.8-13.37-13-22.5-3.2-9.13-4.8-19.97-4.8-32.5s1.77-24.17,5.3-33.3c3.53-9.13,8.2-16.6,14-22.4s12.3-10.03,19.5-12.7c7.2-2.67,14.53-4,22-4,8,0,14.53.43,19.6,1.3,5.07.87,9.4,2.04,13,3.5l-4,14.8c-6.4-3.2-15.53-4.8-27.4-4.8-5.47,0-10.87,1-16.2,3-5.33,2-10.1,5.27-14.3,9.8-4.2,4.53-7.57,10.47-10.1,17.8-2.53,7.33-3.8,16.33-3.8,27,0,9.6,1.2,18,3.6,25.2s5.7,13.2,9.9,18c4.2,4.8,9.13,8.4,14.8,10.8,5.67,2.4,11.83,3.6,18.5,3.6,6,0,11.23-.6,15.7-1.8,4.47-1.2,8.23-2.73,11.3-4.6l4,13Z" style="fill:#4e1d04;"/><path d="M231.1,1009.84c0-23.33,4.93-41.23,14.8-53.7,9.87-12.47,23.93-18.7,42.2-18.7,9.87,0,18.4,1.73,25.6,5.2,7.2,3.47,13.17,8.37,17.9,14.7,4.73,6.33,8.23,13.93,10.5,22.8,2.27,8.87,3.4,18.77,3.4,29.7,0,23.33-4.97,41.23-14.9,53.7-9.93,12.47-24.1,18.7-42.5,18.7-9.73,0-18.17-1.73-25.3-5.2-7.13-3.47-13.07-8.37-17.8-14.7-4.73-6.33-8.23-13.93-10.5-22.8-2.27-8.87-3.4-18.77-3.4-29.7ZM248.7,1009.84c0,7.73.77,15.07,2.3,22,1.53,6.93,3.9,13.03,7.1,18.3,3.2,5.27,7.3,9.47,12.3,12.6,5,3.13,10.9,4.7,17.7,4.7,12.4,0,22.13-4.7,29.2-14.1,7.07-9.4,10.6-23.9,10.6-43.5,0-7.6-.77-14.9-2.3-21.9-1.53-7-3.93-13.13-7.2-18.4-3.27-5.27-7.4-9.47-12.4-12.6-5-3.13-10.97-4.7-17.9-4.7-12.27,0-21.9,4.7-28.9,14.1s-10.5,23.9-10.5,43.5Z" style="fill:#4e1d04;"/><path d="M414.9,1036.04l4.8,21.2h.2l5.2-21.6,33.8-95.8h16.6l-53,142.2h-7.4l-54-142.2h18.2l35.6,96.2Z" style="fill:#4e1d04;"/><path d="M502.1,939.84h76.2v14.8h-59.6v45.8h54.6v14.8h-54.6v49.8h60.6v14.8h-77.2v-140Z" style="fill:#4e1d04;"/><path d="M619.3,941.24c5.07-.93,10.9-1.67,17.5-2.2,6.6-.53,12.63-.8,18.1-.8,6.13,0,11.97.67,17.5,2,5.53,1.33,10.4,3.54,14.6,6.6,4.2,3.07,7.57,7.07,10.1,12,2.53,4.93,3.8,10.93,3.8,18,0,10.93-3,19.8-9,26.6-6,6.8-13.6,11.33-22.8,13.6l9.6,7.4,34.8,55.4h-19.4l-38.6-60.4-19.6-3v63.4h-16.6v-138.6ZM655.3,952.64h-5.4c-1.87,0-3.67.07-5.4.2-1.73.13-3.37.27-4.9.4-1.53.13-2.77.33-3.7.6v51.6h15.6c9.2,0,16.8-2.27,22.8-6.8,6-4.53,9-11.6,9-21.2,0-7.2-2.47-13.13-7.4-17.8-4.93-4.67-11.8-7-20.6-7Z" style="fill:#4e1d04;"/><path d="M836.9,988.24l-10.8-20.2h-.8l2,20.2v91.6h-15.6v-142.2h8.8l67,93.4,10.4,19.2h1l-2.2-19.2v-91.2h15.6v142.2h-8.8l-66.6-93.8Z" style="fill:#4e1d04;"/><path d="M950.5,1009.84c0-23.33,4.93-41.23,14.8-53.7,9.87-12.47,23.93-18.7,42.2-18.7,9.87,0,18.4,1.73,25.6,5.2,7.2,3.47,13.17,8.37,17.9,14.7,4.73,6.33,8.23,13.93,10.5,22.8,2.27,8.87,3.4,18.77,3.4,29.7,0,23.33-4.97,41.23-14.9,53.7-9.93,12.47-24.1,18.7-42.5,18.7-9.73,0-18.17-1.73-25.3-5.2-7.13-3.47-13.07-8.37-17.8-14.7-4.73-6.33-8.23-13.93-10.5-22.8-2.27-8.87-3.4-18.77-3.4-29.7ZM968.1,1009.84c0,7.73.77,15.07,2.3,22,1.53,6.93,3.9,13.03,7.1,18.3,3.2,5.27,7.3,9.47,12.3,12.6,5,3.13,10.9,4.7,17.7,4.7,12.4,0,22.13-4.7,29.2-14.1,7.07-9.4,10.6-23.9,10.6-43.5,0-7.6-.77-14.9-2.3-21.9-1.53-7-3.93-13.13-7.2-18.4-3.27-5.27-7.4-9.47-12.4-12.6-5-3.13-10.97-4.7-17.9-4.7-12.27,0-21.9,4.7-28.9,14.1s-10.5,23.9-10.5,43.5Z" style="fill:#4e1d04;"/><path d="M1183.9,954.64h-43.6v125.2h-16.6v-125.2h-43.6v-14.8h103.8v14.8Z" style="fill:#4e1d04;"/><path d="M228.78,1261.51h-51.34l-13.93,38.8h-16.6l53-142.2h7.6l53.2,142.2h-17.6l-14.33-38.8ZM182.81,1247.1h40.99l-15.52-42.6-4.98-21.2h-.2l-4.97,21.6-15.32,42.2Z" style="fill:#4e1d04;"/><path d="M316.7,1256.51l4.8,21.2h.2l5.2-21.6,33.8-95.8h16.6l-53,142.2h-7.4l-54-142.2h18.2l35.6,96.2Z" style="fill:#4e1d04;"/><path d="M461.37,1261.51h-51.34l-13.93,38.8h-16.6l53-142.2h7.6l53.2,142.2h-17.6l-14.33-38.8ZM415.41,1247.1h40.99l-15.52-42.6-4.98-21.2h-.2l-4.97,21.6-15.32,42.2Z" style="fill:#4e1d04;"/><path d="M525.7,1160.3h16.6v140h-16.6v-140Z" style="fill:#4e1d04;"/><path d="M672.9,1300.3h-82.8v-140h16.6v125.2h66.2v14.8Z" style="fill:#4e1d04;"/><path d="M771.17,1261.51h-51.34l-13.93,38.8h-16.6l53-142.2h7.6l53.2,142.2h-17.6l-14.33-38.8ZM725.2,1247.1h40.99l-15.52-42.6-4.98-21.2h-.2l-4.97,21.6-15.32,42.2Z" style="fill:#4e1d04;"/><path d="M916.09,1192.3c0,3.33-.54,6.73-1.6,10.2-1.07,3.47-2.67,6.7-4.8,9.7-2.13,3-4.87,5.63-8.2,7.9-3.33,2.27-7.27,4-11.8,5.2v.8c4,.67,7.83,1.8,11.5,3.4,3.67,1.6,6.9,3.8,9.7,6.6,2.8,2.8,5.06,6.2,6.8,10.2,1.73,4,2.6,8.73,2.6,14.2,0,7.2-1.5,13.43-4.5,18.7-3,5.27-6.93,9.57-11.8,12.9-4.87,3.33-10.43,5.8-16.7,7.4-6.27,1.6-12.67,2.4-19.2,2.4h-8c-3.07,0-6.27-.1-9.6-.3-3.33-.2-6.67-.47-10-.8-3.33-.33-6.27-.83-8.8-1.5v-137.8c4.93-.8,10.67-1.47,17.2-2,6.53-.53,13.67-.8,21.4-.8,5.2,0,10.5.43,15.9,1.3,5.4.87,10.3,2.53,14.7,5,4.4,2.47,8.03,5.9,10.9,10.3s4.3,10.07,4.3,17ZM858.69,1221.9c2.27,0,5-.07,8.2-.2,3.2-.13,5.87-.33,8-.6,3.2-1.07,6.2-2.37,9-3.9,2.8-1.53,5.3-3.33,7.5-5.4,2.2-2.07,3.93-4.47,5.2-7.2,1.27-2.73,1.9-5.7,1.9-8.9,0-4.4-.83-8.03-2.5-10.9-1.67-2.87-3.9-5.17-6.7-6.9-2.8-1.73-6-2.96-9.6-3.7-3.6-.73-7.27-1.1-11-1.1-4.4,0-8.43.1-12.1.3-3.67.2-6.43.5-8.3.9v47.6h10.4ZM869.69,1287.51c4.27,0,8.4-.5,12.4-1.5s7.53-2.6,10.6-4.8c3.07-2.2,5.5-4.9,7.3-8.1,1.8-3.2,2.7-7,2.7-11.4,0-5.47-1.1-9.87-3.3-13.2-2.2-3.33-5.07-5.93-8.6-7.8-3.53-1.87-7.5-3.13-11.9-3.8-4.4-.67-8.8-1-13.2-1h-17.4v50.2c.93.27,2.27.47,4,.6,1.73.13,3.6.27,5.6.4,2,.13,4.06.23,6.2.3,2.13.07,4,.1,5.6.1Z" style="fill:#4e1d04;"/><path d="M1041.29,1300.3h-82.8v-140h16.6v125.2h66.2v14.8Z" style="fill:#4e1d04;"/><path d="M1071.9,1160.3h76.2v14.8h-59.6v45.8h54.6v14.8h-54.6v49.8h60.6v14.8h-77.2v-140Z" style="fill:#4e1d04;"/></g></svg>